{
  "asset": {
    "generator": "UnityGLTF",
    "version": "2.0"
  },
  "scene": 0,
  "scenes": [
    {
      "nodes": [
        0,
        1
      ],
      "name": "TestScene"
    }
  ],
  "accessors": [
    {
      "bufferView": 0,
      "componentType": 5126,
      "count": 121,
      "type": "VEC3",
      "max": [
        5.0,
        1.1102230246251565E-16,
        5.0
      ],
      "min": [
        -5.0,
        -1.1102230246251565E-16,
        -5.0
      ]
    },
    {
      "bufferView": 1,
      "componentType": 5126,
      "count": 121,
      "type": "VEC3",
      "max": [
        0.0,
        1.0,
        0.0
      ],
      "min": [
        0.0,
        1.0,
        0.0
      ]
    },
    {
      "bufferView": 2,
      "componentType": 5126,
      "count": 121,
      "type": "VEC4",
      "max": [
        1.0,
        0.0,
        0.0,
        1.0
      ],
      "min": [
        1.0,
        0.0,
        0.0,
        1.0
      ]
    },
    {
      "bufferView": 3,
      "componentType": 5126,
      "count": 121,
      "type": "VEC2",
      "max": [
        1.0,
        1.0
      ],
      "min": [
        0.0,
        0.0
      ]
    },
    {
      "bufferView": 4,
      "componentType": 5121,
      "count": 600,
      "type": "SCALAR",
      "max": [
        120.0
      ],
      "min": [
        0.0
      ]
    },
    {
      "bufferView": 5,
      "componentType": 5126,
      "count": 7729,
      "type": "VEC3",
      "max": [
        6.4485821723937988,
        29.377067565917969,
        5.9218354225158691
      ],
      "min": [
        -5.2888302803039551,
        -0.38400000333786011,
        -5.4572458267211914
      ]
    },
    {
      "bufferView": 6,
      "componentType": 5126,
      "count": 7729,
      "type": "VEC3",
      "max": [
        0.9999701976776123,
        1.0,
        0.99995458126068115
      ],
      "min": [
        -0.99992656707763672,
        -0.99999570846557617,
        -0.99996662139892578
      ]
    },
    {
      "bufferView": 7,
      "componentType": 5126,
      "count": 7729,
      "type": "VEC4",
      "max": [
        0.99995577335357666,
        0.99897396564483643,
        0.99999487400054932,
        1.0
      ],
      "min": [
        -0.99996185302734375,
        -0.99898165464401245,
        -1.0,
        -1.0
      ]
    },
    {
      "bufferView": 8,
      "componentType": 5126,
      "count": 7729,
      "type": "VEC2",
      "max": [
        0.984375,
        1.0
      ],
      "min": [
        0.015625,
        -133.38578796386719
      ]
    },
    {
      "bufferView": 9,
      "componentType": 5126,
      "count": 7729,
      "type": "VEC2",
      "max": [
        1.9728894233703613,
        1.0
      ],
      "min": [
        0.0,
        0.72581994533538818
      ]
    },
    {
      "bufferView": 10,
      "componentType": 5126,
      "count": 7729,
      "type": "VEC4",
      "max": [
        1.0,
        1.0,
        1.0,
        1.0
      ],
      "min": [
        0.0313725508749485,
        0.0,
        0.0,
        0.08235294371843338
      ]
    },
    {
      "bufferView": 11,
      "componentType": 5123,
      "count": 6108,
      "type": "SCALAR",
      "max": [
        1401.0
      ],
      "min": [
        0.0
      ]
    },
    {
      "bufferView": 12,
      "componentType": 5123,
      "count": 11856,
      "type": "SCALAR",
      "max": [
        7728.0
      ],
      "min": [
        1402.0
      ]
    },
    {
      "bufferView": 13,
      "componentType": 5126,
      "count": 5762,
      "type": "VEC3",
      "max": [
        6.4485821723937988,
        29.377067565917969,
        5.9218354225158691
      ],
      "min": [
        -5.2888302803039551,
        -0.38400000333786011,
        -5.4572458267211914
      ]
    },
    {
      "bufferView": 14,
      "componentType": 5126,
      "count": 5762,
      "type": "VEC3",
      "max": [
        0.999858021736145,
        1.0,
        0.99994230270385742
      ],
      "min": [
        -0.99985706806182861,
        -0.99999570846557617,
        -0.99996268749237061
      ]
    },
    {
      "bufferView": 15,
      "componentType": 5126,
      "count": 5762,
      "type": "VEC4",
      "max": [
        0.9999086856842041,
        0.99897396564483643,
        0.99993038177490234,
        1.0
      ],
      "min": [
        -0.99994289875030518,
        -0.99898165464401245,
        -0.999896764755249,
        -1.0
      ]
    },
    {
      "bufferView": 16,
      "componentType": 5126,
      "count": 5762,
      "type": "VEC2",
      "max": [
        0.984375,
        1.0
      ],
      "min": [
        0.015625,
        -133.38578796386719
      ]
    },
    {
      "bufferView": 17,
      "componentType": 5126,
      "count": 5762,
      "type": "VEC2",
      "max": [
        1.5729831457138062,
        1.0
      ],
      "min": [
        0.0,
        0.72581994533538818
      ]
    },
    {
      "bufferView": 18,
      "componentType": 5126,
      "count": 5762,
      "type": "VEC4",
      "max": [
        1.0,
        0.99607843160629272,
        1.0,
        1.0
      ],
      "min": [
        0.0313725508749485,
        0.0,
        0.0,
        0.30196079611778259
      ]
    },
    {
      "bufferView": 19,
      "componentType": 5123,
      "count": 5970,
      "type": "SCALAR",
      "max": [
        1377.0
      ],
      "min": [
        0.0
      ]
    },
    {
      "bufferView": 20,
      "componentType": 5123,
      "count": 8952,
      "type": "SCALAR",
      "max": [
        5761.0
      ],
      "min": [
        1378.0
      ]
    },
    {
      "bufferView": 21,
      "componentType": 5126,
      "count": 4542,
      "type": "VEC3",
      "max": [
        6.4485821723937988,
        29.377067565917969,
        5.9218354225158691
      ],
      "min": [
        -5.2888302803039551,
        -0.38400000333786011,
        -5.6102147102355957
      ]
    },
    {
      "bufferView": 22,
      "componentType": 5126,
      "count": 4542,
      "type": "VEC3",
      "max": [
        0.99995172023773193,
        1.0,
        0.99991202354431152
      ],
      "min": [
        -0.99994933605194092,
        -0.99999570846557617,
        -0.99995243549346924
      ]
    },
    {
      "bufferView": 23,
      "componentType": 5126,
      "count": 4542,
      "type": "VEC4",
      "max": [
        0.99959713220596313,
        0.99897396564483643,
        1.0,
        1.0
      ],
      "min": [
        -0.9999622106552124,
        -0.99898165464401245,
        -0.99999535083770752,
        -1.0
      ]
    },
    {
      "bufferView": 24,
      "componentType": 5126,
      "count": 4542,
      "type": "VEC2",
      "max": [
        0.984375,
        1.0
      ],
      "min": [
        0.015625,
        -136.54904174804688
      ]
    },
    {
      "bufferView": 25,
      "componentType": 5126,
      "count": 4542,
      "type": "VEC2",
      "max": [
        1.5729831457138062,
        1.0
      ],
      "min": [
        0.0,
        0.72581994533538818
      ]
    },
    {
      "bufferView": 26,
      "componentType": 5126,
      "count": 4542,
      "type": "VEC4",
      "max": [
        1.0,
        0.99607843160629272,
        1.0,
        1.0
      ],
      "min": [
        0.0313725508749485,
        0.0,
        0.0,
        0.22745098173618317
      ]
    },
    {
      "bufferView": 27,
      "componentType": 5123,
      "count": 4140,
      "type": "SCALAR",
      "max": [
        1022.0
      ],
      "min": [
        0.0
      ]
    },
    {
      "bufferView": 28,
      "componentType": 5123,
      "count": 7104,
      "type": "SCALAR",
      "max": [
        4541.0
      ],
      "min": [
        1023.0
      ]
    },
    {
      "bufferView": 29,
      "componentType": 5126,
      "count": 2591,
      "type": "VEC3",
      "max": [
        6.3418645858764648,
        29.170541763305664,
        5.804964542388916
      ],
      "min": [
        -5.5115580558776855,
        -0.38400000333786011,
        -6.2007322311401367
      ]
    },
    {
      "bufferView": 30,
      "componentType": 5126,
      "count": 2591,
      "type": "VEC3",
      "max": [
        0.99996626377105713,
        0.99999570846557617,
        0.99931859970092773
      ],
      "min": [
        -0.9998621940612793,
        -0.99999570846557617,
        -0.99994456768035889
      ]
    },
    {
      "bufferView": 31,
      "componentType": 5126,
      "count": 2591,
      "type": "VEC4",
      "max": [
        0.9904780387878418,
        0.99897396564483643,
        0.999984622001648,
        1.0
      ],
      "min": [
        -0.99999403953552246,
        -0.99898165464401245,
        -0.99999141693115234,
        -1.0
      ]
    },
    {
      "bufferView": 32,
      "componentType": 5126,
      "count": 2591,
      "type": "VEC2",
      "max": [
        0.984375,
        1.0
      ],
      "min": [
        0.015625,
        -111.93212890625
      ]
    },
    {
      "bufferView": 33,
      "componentType": 5126,
      "count": 2591,
      "type": "VEC2",
      "max": [
        1.5161195993423462,
        1.0
      ],
      "min": [
        0.0,
        0.72581994533538818
      ]
    },
    {
      "bufferView": 34,
      "componentType": 5126,
      "count": 2591,
      "type": "VEC4",
      "max": [
        1.0,
        1.0,
        1.0,
        1.0
      ],
      "min": [
        0.0313725508749485,
        0.0,
        0.0,
        0.070588238537311554
      ]
    },
    {
      "bufferView": 35,
      "componentType": 5123,
      "count": 1632,
      "type": "SCALAR",
      "max": [
        522.0
      ],
      "min": [
        0.0
      ]
    },
    {
      "bufferView": 36,
      "componentType": 5123,
      "count": 3480,
      "type": "SCALAR",
      "max": [
        2590.0
      ],
      "min": [
        523.0
      ]
    }
  ],
  "buffers": [
    {
      "uri": "TestScene.bin",
      "byteLength": 1589820
    }
  ],
  "bufferViews": [
    {
      "buffer": 0,
      "byteLength": 1452,
      "byteStride": 12,
      "target": 34962
    },
    {
      "buffer": 0,
      "byteOffset": 1452,
      "byteLength": 1452,
      "byteStride": 12,
      "target": 34962
    },
    {
      "buffer": 0,
      "byteOffset": 2904,
      "byteLength": 1936,
      "target": 34962
    },
    {
      "buffer": 0,
      "byteOffset": 4840,
      "byteLength": 968,
      "target": 34962
    },
    {
      "buffer": 0,
      "byteOffset": 5808,
      "byteLength": 600,
      "target": 34963
    },
    {
      "buffer": 0,
      "byteOffset": 6408,
      "byteLength": 92748,
      "byteStride": 12,
      "target": 34962
    },
    {
      "buffer": 0,
      "byteOffset": 99156,
      "byteLength": 92748,
      "byteStride": 12,
      "target": 34962
    },
    {
      "buffer": 0,
      "byteOffset": 191904,
      "byteLength": 123664,
      "target": 34962
    },
    {
      "buffer": 0,
      "byteOffset": 315568,
      "byteLength": 61832,
      "target": 34962
    },
    {
      "buffer": 0,
      "byteOffset": 377400,
      "byteLength": 61832,
      "target": 34962
    },
    {
      "buffer": 0,
      "byteOffset": 439232,
      "byteLength": 123664,
      "target": 34962
    },
    {
      "buffer": 0,
      "byteOffset": 562896,
      "byteLength": 12216,
      "target": 34963
    },
    {
      "buffer": 0,
      "byteOffset": 575112,
      "byteLength": 23712,
      "target": 34963
    },
    {
      "buffer": 0,
      "byteOffset": 598824,
      "byteLength": 69144,
      "byteStride": 12,
      "target": 34962
    },
    {
      "buffer": 0,
      "byteOffset": 667968,
      "byteLength": 69144,
      "byteStride": 12,
      "target": 34962
    },
    {
      "buffer": 0,
      "byteOffset": 737112,
      "byteLength": 92192,
      "target": 34962
    },
    {
      "buffer": 0,
      "byteOffset": 829304,
      "byteLength": 46096,
      "target": 34962
    },
    {
      "buffer": 0,
      "byteOffset": 875400,
      "byteLength": 46096,
      "target": 34962
    },
    {
      "buffer": 0,
      "byteOffset": 921496,
      "byteLength": 92192,
      "target": 34962
    },
    {
      "buffer": 0,
      "byteOffset": 1013688,
      "byteLength": 11940,
      "target": 34963
    },
    {
      "buffer": 0,
      "byteOffset": 1025628,
      "byteLength": 17904,
      "target": 34963
    },
    {
      "buffer": 0,
      "byteOffset": 1043532,
      "byteLength": 54504,
      "byteStride": 12,
      "target": 34962
    },
    {
      "buffer": 0,
      "byteOffset": 1098036,
      "byteLength": 54504,
      "byteStride": 12,
      "target": 34962
    },
    {
      "buffer": 0,
      "byteOffset": 1152540,
      "byteLength": 72672,
      "target": 34962
    },
    {
      "buffer": 0,
      "byteOffset": 1225212,
      "byteLength": 36336,
      "target": 34962
    },
    {
      "buffer": 0,
      "byteOffset": 1261548,
      "byteLength": 36336,
      "target": 34962
    },
    {
      "buffer": 0,
      "byteOffset": 1297884,
      "byteLength": 72672,
      "target": 34962
    },
    {
      "buffer": 0,
      "byteOffset": 1370556,
      "byteLength": 8280,
      "target": 34963
    },
    {
      "buffer": 0,
      "byteOffset": 1378836,
      "byteLength": 14208,
      "target": 34963
    },
    {
      "buffer": 0,
      "byteOffset": 1393044,
      "byteLength": 31092,
      "byteStride": 12,
      "target": 34962
    },
    {
      "buffer": 0,
      "byteOffset": 1424136,
      "byteLength": 31092,
      "byteStride": 12,
      "target": 34962
    },
    {
      "buffer": 0,
      "byteOffset": 1455228,
      "byteLength": 41456,
      "target": 34962
    },
    {
      "buffer": 0,
      "byteOffset": 1496684,
      "byteLength": 20728,
      "target": 34962
    },
    {
      "buffer": 0,
      "byteOffset": 1517412,
      "byteLength": 20728,
      "target": 34962
    },
    {
      "buffer": 0,
      "byteOffset": 1538140,
      "byteLength": 41456,
      "target": 34962
    },
    {
      "buffer": 0,
      "byteOffset": 1579596,
      "byteLength": 3264,
      "target": 34963
    },
    {
      "buffer": 0,
      "byteOffset": 1582860,
      "byteLength": 6960,
      "target": 34963
    }
  ],
  "materials": [
    {
      "pbrMetallicRoughness": {
        "baseColorFactor": [
          0.214041144,
          0.214041144,
          0.214041144,
          1.0
        ],
        "metallicFactor": 0.0,
        "roughnessFactor": 0.5
      },
      "name": "Lit"
    },
    {
      "pbrMetallicRoughness": {
        "baseColorFactor": [
          0.214041144,
          0.214041144,
          0.214041144,
          1.0
        ],
        "metallicFactor": 0.0,
        "roughnessFactor": 0.5
      },
      "name": "Lit"
    },
    {
      "pbrMetallicRoughness": {
        "baseColorFactor": [
          0.214041144,
          0.214041144,
          0.214041144,
          1.0
        ],
        "metallicFactor": 0.0,
        "roughnessFactor": 0.5
      },
      "name": "Lit"
    },
    {
      "pbrMetallicRoughness": {
        "baseColorFactor": [
          0.214041144,
          0.214041144,
          0.214041144,
          1.0
        ],
        "metallicFactor": 0.0,
        "roughnessFactor": 0.5
      },
      "name": "Lit"
    },
    {
      "pbrMetallicRoughness": {
        "baseColorFactor": [
          0.214041144,
          0.214041144,
          0.214041144,
          1.0
        ],
        "metallicFactor": 0.0,
        "roughnessFactor": 0.5
      },
      "name": "Lit"
    },
    {
      "pbrMetallicRoughness": {
        "baseColorFactor": [
          0.214041144,
          0.214041144,
          0.214041144,
          1.0
        ],
        "metallicFactor": 0.0,
        "roughnessFactor": 0.5
      },
      "name": "Lit"
    },
    {
      "pbrMetallicRoughness": {
        "baseColorFactor": [
          0.214041144,
          0.214041144,
          0.214041144,
          1.0
        ],
        "metallicFactor": 0.0,
        "roughnessFactor": 0.5
      },
      "name": "Lit"
    },
    {
      "pbrMetallicRoughness": {
        "baseColorFactor": [
          0.214041144,
          0.214041144,
          0.214041144,
          1.0
        ],
        "metallicFactor": 0.0,
        "roughnessFactor": 0.5
      },
      "name": "Lit"
    },
    {
      "pbrMetallicRoughness": {
        "baseColorFactor": [
          0.214041144,
          0.214041144,
          0.214041144,
          1.0
        ],
        "metallicFactor": 0.0,
        "roughnessFactor": 0.5
      },
      "name": "Lit"
    }
  ],
  "meshes": [
    {
      "primitives": [
        {
          "attributes": {
            "POSITION": 0,
            "NORMAL": 1,
            "TANGENT": 2,
            "TEXCOORD_0": 3
          },
          "indices": 4,
          "material": 0
        }
      ],
      "name": "Ground"
    },
    {
      "primitives": [
        {
          "attributes": {
            "POSITION": 5,
            "NORMAL": 6,
            "TANGENT": 7,
            "TEXCOORD_0": 8,
            "TEXCOORD_1": 9,
            "COLOR_0": 10
          },
          "indices": 11,
          "material": 1
        },
        {
          "attributes": {
            "POSITION": 5,
            "NORMAL": 6,
            "TANGENT": 7,
            "TEXCOORD_0": 8,
            "TEXCOORD_1": 9,
            "COLOR_0": 10
          },
          "indices": 12,
          "material": 2
        }
      ],
      "name": "ForestTree03LOD0"
    },
    {
      "primitives": [
        {
          "attributes": {
            "POSITION": 13,
            "NORMAL": 14,
            "TANGENT": 15,
            "TEXCOORD_0": 16,
            "TEXCOORD_1": 17,
            "COLOR_0": 18
          },
          "indices": 19,
          "material": 3
        },
        {
          "attributes": {
            "POSITION": 13,
            "NORMAL": 14,
            "TANGENT": 15,
            "TEXCOORD_0": 16,
            "TEXCOORD_1": 17,
            "COLOR_0": 18
          },
          "indices": 20,
          "material": 4
        }
      ],
      "name": "ForestTree03LOD1"
    },
    {
      "primitives": [
        {
          "attributes": {
            "POSITION": 21,
            "NORMAL": 22,
            "TANGENT": 23,
            "TEXCOORD_0": 24,
            "TEXCOORD_1": 25,
            "COLOR_0": 26
          },
          "indices": 27,
          "material": 5
        },
        {
          "attributes": {
            "POSITION": 21,
            "NORMAL": 22,
            "TANGENT": 23,
            "TEXCOORD_0": 24,
            "TEXCOORD_1": 25,
            "COLOR_0": 26
          },
          "indices": 28,
          "material": 6
        }
      ],
      "name": "ForestTree03LOD2"
    },
    {
      "primitives": [
        {
          "attributes": {
            "POSITION": 29,
            "NORMAL": 30,
            "TANGENT": 31,
            "TEXCOORD_0": 32,
            "TEXCOORD_1": 33,
            "COLOR_0": 34
          },
          "indices": 35,
          "material": 7
        },
        {
          "attributes": {
            "POSITION": 29,
            "NORMAL": 30,
            "TANGENT": 31,
            "TEXCOORD_0": 32,
            "TEXCOORD_1": 33,
            "COLOR_0": 34
          },
          "indices": 36,
          "material": 8
        }
      ],
      "name": "ForestTree03LOD3"
    }
  ],
  "nodes": [
    {
      "mesh": 0,
      "translation": [
        -379.1925,
        -56.1081,
        295.4267
      ],
      "name": "Ground"
    },
    {
      "children": [
        2,
        3,
        4,
        5
      ],
      "translation": [
        -378.636658,
        -56.86,
        291.810638
      ],
      "name": "ForestTree03_Optimized"
    },
    {
      "mesh": 1,
      "name": "ForestTree03LOD0"
    },
    {
      "mesh": 2,
      "name": "ForestTree03LOD1"
    },
    {
      "mesh": 3,
      "name": "ForestTree03LOD2"
    },
    {
      "mesh": 4,
      "name": "ForestTree03LOD3"
    }
  ]
}